<?xml version="1.0" encoding="UTF-8"?>
<svg version="1.1" viewBox="0 0 1000 750" xmlns="http://www.w3.org/2000/svg">
<rect width="1e3" height="750" fill="#fff"/>
<g transform="matrix(.42566 0 0 .42566 287.02 83.236)">
<svg width="1e3" height="1372" data-background-color="#ffffff" viewBox="0 0 180 247" xmlns="http://www.w3.org/2000/svg" xmlns:xlink="http://www.w3.org/1999/xlink">
<g transform="translate(.066169 -.1)">
<svg width="179.87" height="247.2" viewBox="0 0 179.86765860710776 247.2">
<svg width="179.87" height="247.2" viewBox="0 0 369.6783241142858 508.06510980757406">
<svg width="369.68" height="508.07" viewBox="0 0 369.6783241142858 508.06510980757406">
<svg width="369.68" height="508.07" viewBox="0 0 369.6783241142858 508.06510980757406">
<svg width="369.68" height="245.67" viewBox="0 0 369.6783241142858 245.672304">
<g>
<svg width="369.68" height="245.67" data-palette-color="#ee3e38" viewBox="2.25 -47 71.0999984741211 47.25">
<path class="undefined-text-0" d="m15.4 0.25q-2.9 0-6.55-0.5-2-0.25-2.75-1.05t-0.65-2.6q0.35-4.95 1.65-12.23 1.3-7.27 3.15-14.02 0.35-1.25 1.4-1.75t2.75-0.5q3.05 0 3.05 1.7 0 0.7-0.3 1.6-1.3 4-2.6 10.72-1.3 6.73-1.85 12.83 1.5 0.15 3.4 0.15 8.75 0 13.08-5.3 4.32-5.3 4.32-14.15 0-5.95-3.4-9.2t-9.6-3.25q-4 0-7.92 1.25-3.93 1.25-7.08 3.3-0.65 0.45-1.4 0.45-0.85 0-1.35-0.72-0.5-0.73-0.5-1.78 0-1.2 0.4-1.97 0.4-0.78 1.35-1.43 3.45-2.35 8.1-3.58 4.65-1.22 8.95-1.22 6.1 0 10.55 2.12 4.45 2.13 6.85 6.23t2.4 9.9q0 7.55-3 13.17-3 5.63-8.75 8.73t-13.7 3.1zm56.55-11.4q0.65 0 1.02 0.6 0.38 0.6 0.38 1.65 0 2-0.95 3.1-2.3 2.65-4.73 4.35-2.42 1.7-5.52 1.7-2.55 0-3.85-1.48-1.3-1.47-1.3-4.27 0-1.4 0.7-5 0.65-3.15 0.65-4.35 0-0.8-0.55-0.8-0.65 0-1.85 1.67-1.2 1.68-2.4 4.43t-1.95 5.8q-0.95 4-4.7 4-1.5 0-1.98-1.08-0.47-1.07-0.47-3.87 0-1.6 0.05-2.55l0.05-4q0-7.7 1.57-16.05 1.58-8.35 4.65-14.03 3.08-5.67 7.38-5.67 2.3 0 3.72 1.97 1.43 1.98 1.43 5.13 0 5.05-2.95 10.47-2.95 5.43-9.6 12.68-0.15 2.6-0.15 5.35 1.65-4.25 3.67-6.92 2.03-2.68 4-3.83 1.98-1.15 3.63-1.15 3.25 0 3.25 3.25 0 1.95-1.1 7.05-0.95 4.35-0.95 5.75 0 2 1.45 2 1 0 2.37-1.23 1.38-1.22 3.68-3.97 0.6-0.7 1.35-0.7zm-14.85-30.9q-0.9 0-2 2.57-1.1 2.58-2.13 6.96-1.02 4.37-1.67 9.52 3.1-3.65 5.12-7.95 2.03-4.3 2.03-7.8 0-1.6-0.35-2.45t-1-0.85z" fill="#ee3e38" data-fill-palette-color="primary"/>
</svg>
</g>
</svg>
<g transform="translate(0 361.67)">
<svg width="369.68" height="146.4" viewBox="0 0 369.6783241142858 146.39813612936607">
<path d="m369.68 0-24.399 73.199 24.399 73.199h-369.68l24.4-73.199-24.4-73.199z" fill="#ee3e38" data-fill-palette-color="tertiary"/>
<g transform="translate(70.609 57.997)">
<svg width="228.46" height="30.403" data-palette-color="#ffffff" viewBox="-1.2470588684082031 -36.95000076293945 352.7770690917969 46.95000076293945">
<path class="undefined-text-1" d="m26.95-33.3q5.3 0 8.18 2.3 2.87 2.3 2.87 6.1 0 1.5-0.45 3.15-1.4 5-5.53 7.4-4.12 2.4-10.42 2.4h-5.15l-1.7 6.05q-0.1 0.3-0.1 0.8 0 0.7 0.33 1.15 0.32 0.45 0.97 1.05 0.55 0.5 0.75 0.75t0.2 0.6q0 0.85-0.8 1.2t-2.35 0.35h-12.55q-1.3 0-1.95-0.48-0.65-0.47-0.45-1.32 0.1-0.45 0.37-0.73 0.28-0.27 0.83-0.62 0.85-0.5 1.35-1.05t0.8-1.7l6.1-21.55q0.2-0.65 0.2-1.25 0-0.55-0.17-0.93-0.18-0.37-0.48-0.87-0.45-0.65-0.45-1.05 0-0.15 0.1-0.55 0.2-0.65 0.88-0.92 0.67-0.28 2.07-0.28h16.55zm-1.3 10.65q0.55-1.85 0.55-3.25 0-2.9-2.7-2.9h-2.25l-3.55 12.35h2.2q2.1 0 3.43-1.33 1.32-1.32 2.32-4.87zm42.2 5.9-3.05 9.85q-0.1 0.2-0.1 0.6 0 0.35 0.17 0.55 0.18 0.2 0.48 0.2 0.6 0 1.02-0.53 0.43-0.52 0.58-0.52 0.25 0 0.4 0.32 0.15 0.33 0.15 0.78 0.05 1.45-0.95 2.82-1 1.38-2.93 2.25-1.92 0.88-4.62 0.88-3.3 0-5.25-1.52-1.95-1.53-2-4.08 0-1.85 0.9-4.15l2.75-7.2q0.25-0.65 0.25-1.05 0-0.65-0.43-1.02-0.42-0.38-1.02-0.38-0.95 0-1.93 0.88-0.97 0.87-1.57 2.82v-0.1l-3.15 10.15q-0.15 0.6-0.15 1.05 0 0.65 0.25 1.02 0.25 0.38 0.7 0.73 0.35 0.35 0.5 0.57 0.15 0.23 0.05 0.58-0.25 0.65-1 0.95t-2.3 0.3h-11.4q-1.3 0-1.9-0.43-0.6-0.42-0.4-1.12 0.2-0.6 1.05-1.05 0.75-0.4 1.25-0.95t0.85-1.75l7.6-24.95q0.15-0.45 0.15-0.75 0-0.55-0.28-0.9-0.27-0.35-0.72-0.7-0.5-0.4-0.73-0.7-0.22-0.3-0.07-0.8 0.3-1.15 3.15-2t5.95-0.85q2.9 0 4.27 1.1 1.38 1.1 1.38 3 0 1.1-0.35 2.15l-2.7 8.8q1.95-2.55 4.12-3.55 2.18-1 4.73-1 3.05 0 4.92 1.85 1.88 1.85 1.88 4.8 0 1.55-0.5 3.05zm21.15-9.7q6.8 0 10.02 2.75 3.23 2.75 3.23 7.2 0 1.5-0.4 3.35-0.95 4.1-3.55 7.17-2.6 3.08-6.38 4.75-3.77 1.68-8.17 1.68-6.95 0-10.28-2.78-3.32-2.77-3.32-7.37 0-1.55 0.4-3.45 0.95-3.9 3.62-6.93 2.68-3.02 6.55-4.7 3.88-1.67 8.28-1.67zm-0.15 4.45q-1.05 0-2.23 1.87-1.17 1.88-2.77 7.08t-1.6 7.3q0 1.1 0.35 1.47 0.35 0.38 0.95 0.38 1.05 0.1 2.17-1.8 1.13-1.9 2.83-7.4 1.55-4.85 1.55-7.05 0-1.05-0.33-1.45-0.32-0.4-0.92-0.4zm35.94-3.8q0.95 0 1.48 0.4 0.52 0.4 0.52 1.1 0 0.2-0.1 0.7-0.65 2.2-3 2.2h-2.9l-3.75 12.35q-0.25 0.75-0.25 1.55 0 0.9 0.5 1.25t1.4 0.35q0.8 0 2-0.2 0.6-0.15 1.05-0.15 0.35 0 0.53 0.22 0.17 0.23 0.17 0.58 0.05 1-1.47 2.42-1.53 1.43-4.13 2.45-2.6 1.03-5.75 1.03-3.4 0-5.45-1.55t-2.05-4.25q0-1.25 0.4-2.4l3.2-9.9q0.25-0.85 0.25-1.35 0-1-0.47-1.7-0.48-0.7-1.33-1.45-0.75-0.7-1.05-1.18-0.3-0.47-0.15-1.12 0.2-0.65 0.85-1t2.05-0.35h2.8l3.15-3.15q1.65-1.65 3.03-2.3 1.37-0.65 3.57-0.65 3.15 0 3.15 2.4 0 0.75-0.2 1.4l-0.7 2.3h2.65zm18.5-0.65q6.8 0 10.03 2.75 3.22 2.75 3.22 7.2 0 1.5-0.4 3.35-0.95 4.1-3.55 7.17-2.6 3.08-6.37 4.75-3.78 1.68-8.18 1.68-6.95 0-10.27-2.78-3.33-2.77-3.33-7.37 0-1.55 0.4-3.45 0.95-3.9 3.63-6.93 2.67-3.02 6.55-4.7 3.87-1.67 8.27-1.67zm-0.15 4.45q-1.05 0-2.22 1.87-1.18 1.88-2.78 7.08t-1.6 7.3q0 1.1 0.35 1.47 0.35 0.38 0.95 0.38 1.05 0.1 2.18-1.8 1.12-1.9 2.82-7.4 1.55-4.85 1.55-7.05 0-1.05-0.32-1.45-0.33-0.4-0.93-0.4zm43.9-12.6q1.6 0 3.12 0.67 1.53 0.68 2.5 1.85 0.98 1.18 0.98 2.53 0 2.95-4 2.95-1.15 0-1.78-0.18-0.62-0.17-1.47-0.57-0.15 0.35-0.15 1 0 0.8 0.27 1.9 0.28 1.1 0.68 2.05 1.05 1.55 1.05 3.7 0 0.95-0.25 2.3-0.6 2.6-2.63 4.75-2.02 2.15-5.2 3.37-3.17 1.23-6.97 1.23-2.9 0-5.45-0.4-0.75 0.65-0.75 1.6 0 0.65 0.6 1.07 0.6 0.43 2 0.43h7.5q3.85 0 6 1.32 2.15 1.33 2.15 3.78 0 0.9-0.3 1.85-0.6 1.95-2.73 3.63-2.12 1.67-5.97 2.72t-9.35 1.05q-4.9 0-8.3-0.85t-5.08-2.32q-1.67-1.48-1.67-3.28 0-0.4 0.2-1.2 0.45-1.45 2.02-2.38 1.58-0.92 5.18-1.22-1.2-1.15-1.2-2.75 0-0.55 0.15-1.15 0.8-2.6 4.7-3.85-3.75-2.05-3.75-6 0-1.1 0.3-2.3 0.6-2.6 2.65-4.73 2.05-2.12 5.25-3.37t7-1.25q5.95 0 9.35 1.55-0.75-1.15-1.18-2.48-0.42-1.32-0.42-2.42 0-1.9 1.22-3.25 1.23-1.35 3.73-1.35zm-10.85 17.75q0.8-2.55 0.8-3.9 0-1.7-1.45-1.7-1.25 0-2.18 1.22-0.92 1.23-1.87 4.38-0.8 2.6-0.8 3.95 0 1.65 1.4 1.65 1.25 0 2.2-1.25t1.9-4.35zm-5.15 17.55h-4.8q-1.4 0-2.55-0.15-0.6 0.75-0.6 2 0.05 1.25 1.02 1.8 0.98 0.55 3.03 0.55 2.5 0 4.07-0.75 1.58-0.75 1.58-2.15 0-0.6-0.45-0.95t-1.3-0.35zm43-27.15q2.8 0 4.47 1.7 1.68 1.7 1.68 4.2 0 0.95-0.2 1.75-0.5 2.05-1.9 3.15t-3.35 1.1q-1.9 0-2.88-0.9-0.97-0.9-1.72-2.4-0.4-0.85-0.75-1.25t-0.8-0.4q-0.5 0-0.88 0.4-0.37 0.4-0.67 1.4l-3.85 12.5q-0.1 0.25-0.1 0.75 0 0.65 0.37 1.07 0.38 0.43 1.03 0.83 0.6 0.4 0.8 0.65t0.15 0.65q-0.1 0.65-0.73 0.95-0.62 0.3-2.12 0.3h-12.8q-1.3 0-1.88-0.43-0.57-0.42-0.42-1.12 0.2-0.6 1.05-1.05 0.75-0.4 1.25-0.95t0.85-1.75l4.45-14.45q0.1-0.25 0.1-0.7 0-0.55-0.23-0.85-0.22-0.3-0.72-0.75-0.5-0.4-0.7-0.7t-0.05-0.8q0.3-1.15 3.15-2.03 2.85-0.87 5.95-0.87 2.05 0 3.4 0.92 1.35 0.93 1.75 2.63 2.4-3.55 6.3-3.55zm21.24 0q5.75 0 9.2 2.12 3.45 2.13 3.45 6.48 0 1.65-0.6 3.75l-2.05 6.9q-0.05 0.2-0.05 0.5 0 0.8 0.65 0.8 0.6 0 1.03-0.53 0.42-0.52 0.57-0.52 0.25 0 0.43 0.35 0.17 0.35 0.17 0.8 0.05 1.35-1.02 2.75-1.08 1.4-2.88 2.3t-3.95 0.9q-2.6 0-4.45-0.95t-2.55-2.8q-1.5 1.8-3.55 2.77-2.05 0.98-4.4 0.98-2.65 0-4.45-1.03-1.8-1.02-2.67-2.65-0.88-1.62-0.88-3.42 0-0.8 0.15-1.55 0.8-3.45 3.48-5.2 2.67-1.75 6.37-1.75 4.15 0 8.15 1.3l1.25-3.3q0.65-2.1 0.65-3.25-0.05-1.2-0.8-1.8t-2.3-0.6q0.3 0.8 0.3 1.65 0 1.85-1.4 3.2t-4 1.35q-2.45 0-3.82-1.08-1.38-1.07-1.38-2.67 0-2.5 2.8-4.15t8.55-1.65zm-2.8 15.15q-1.4 0-2.27 1.07-0.88 1.08-0.88 2.33 0 0.8 0.38 1.3 0.37 0.5 1.07 0.5 0.65 0 1.43-0.53 0.77-0.52 1.12-1.57l1.05-2.95q-0.85-0.15-1.9-0.15zm43.8-15.35q3.85 0 6.05 2.55t2.2 6.95q0 2.35-0.65 4.95-1.5 6.2-5.6 9.42-4.1 3.23-9.5 3.23-3.45 0-6-1.45l-1.6 5.35q-0.2 0.55-0.2 1.05 0 0.55 0.25 0.93 0.25 0.37 0.65 0.72 0.4 0.4 0.53 0.65 0.12 0.25 0.02 0.6-0.2 0.65-0.95 0.92-0.75 0.28-2.3 0.28h-11.45q-1.3 0-1.87-0.42-0.58-0.43-0.33-1.08 0.1-0.4 0.35-0.65t0.7-0.45q0.75-0.5 1.2-1.02 0.45-0.53 0.8-1.68l7.3-23.95q0.15-0.45 0.15-0.75 0-0.55-0.25-0.88-0.25-0.32-0.75-0.67-0.5-0.4-0.7-0.7t-0.05-0.8q0.3-1.15 3.15-2.03 2.85-0.87 5.95-0.87 2.2 0 3.63 1.1 1.42 1.1 1.62 3.05 3.4-4.35 7.65-4.35zm-5.8 14.85q1.2-4.45 1.2-6.15 0-1.05-0.32-1.38-0.33-0.32-0.93-0.32-0.45 0-1.15 0.42-0.7 0.43-1.4 1.43l-3.95 13.1q0.6 0.6 1.45 0.6 1.35 0 2.58-1.53 1.22-1.52 2.52-6.17zm47.9-4.95-3.05 9.85q-0.1 0.2-0.1 0.6 0 0.35 0.17 0.55 0.18 0.2 0.48 0.2 0.6 0 1.02-0.53 0.43-0.52 0.58-0.52 0.25 0 0.4 0.32 0.15 0.33 0.15 0.78 0.05 1.45-0.95 2.82-1 1.38-2.93 2.25-1.92 0.88-4.62 0.88-3.3 0-5.25-1.52-1.95-1.53-2-4.08 0-1.85 0.9-4.15l2.75-7.2q0.25-0.65 0.25-1.05 0-0.65-0.43-1.02-0.42-0.38-1.02-0.38-0.95 0-1.93 0.88-0.97 0.87-1.57 2.82v-0.1l-3.15 10.15q-0.15 0.6-0.15 1.05 0 0.65 0.25 1.02 0.25 0.38 0.7 0.73 0.35 0.35 0.5 0.57 0.15 0.23 0.05 0.58-0.25 0.65-1 0.95t-2.3 0.3h-11.4q-1.3 0-1.9-0.43-0.6-0.42-0.4-1.12 0.2-0.6 1.05-1.05 0.75-0.4 1.25-0.95t0.85-1.75l7.6-24.95q0.15-0.45 0.15-0.75 0-0.55-0.28-0.9-0.27-0.35-0.72-0.7-0.5-0.4-0.73-0.7-0.22-0.3-0.07-0.8 0.3-1.15 3.15-2t5.95-0.85q2.9 0 4.27 1.1 1.38 1.1 1.38 3 0 1.1-0.35 2.15l-2.7 8.8q1.95-2.55 4.12-3.55 2.18-1 4.73-1 3.05 0 4.92 1.85 1.88 1.85 1.88 4.8 0 1.55-0.5 3.05zm28.3-9.7q2.2 0 3.52 1.77 1.33 1.78 1.33 4.83 0 2.65-0.95 5.7-1.85 6.15-5.93 11.6-4.07 5.45-9.35 8.75-5.27 3.3-10.52 3.3-2.6 0-4.48-0.9-1.87-0.9-2.85-2.4-0.97-1.5-0.97-3.2 0-0.75 0.25-1.65 0.45-1.4 1.5-2.15t2.5-0.75q2.3 0 3.77 1.58 1.48 1.57 1.88 4.32 3.2-0.15 5.9-2.75-2.55-0.45-3.78-1.73-1.22-1.27-1.67-3.97l-2-12.25q-0.15-0.95-0.43-1.33-0.27-0.37-0.72-0.37-0.35 0-0.83 0.35-0.47 0.35-0.67 0.35-0.4 0-0.4-0.85 0-0.7 0.25-1.5 0.9-2.85 3.35-4.83 2.45-1.97 5.7-1.97 3.2 0 4.72 1.9 1.53 1.9 1.98 5.85l1.5 11q0.15 1.25 0.9 1.25 0.9 0 2.1-1.63 1.2-1.62 2.35-4.62-1.5-1.35-2.3-3.1t-0.8-3.75q0-1.55 0.4-2.8 0.6-2 1.87-3.03 1.28-1.02 2.88-1.02z" fill="#fff" data-fill-palette-color="quaternary"/>
</svg>
</g>
</svg>
</g>
</svg>
</svg>
</svg>
</svg>
<rect width="179.87" height="247.2" fill="none" visibility="hidden"/>
</g>
</svg>
</g>
</svg>
